name analog
datacolumns 19
datarows 19
range 0.0 0.009000000000000001
endheader
time	ground_force_vx	ground_force_vy	ground_force_vz	ground_force_px	ground_force_py	ground_force_pz	l_ground_force_vx	l_ground_force_vy	l_ground_force_vz	l_ground_force_px	l_ground_force_py	l_ground_force_pz	ground_torque_x	ground_torque_y	ground_torque_z	l_ground_torque_x	l_ground_torque_y	l_ground_torque_z
0.0	-0.0	-0.0	-0.0	-5.19126033782959	8.507455825805664	-43.17921829223633	5.3226470947265625	-88.8973617553711	-864.0847778320312	-0.0	-0.0	-0.0	-0.0	-0.0	-0.0	231854.0625	-55475.92578125	6876.50146484375
0.0005	-0.0	-0.0	-0.0	-3.9712460041046143	8.289127349853516	-45.03589630126953	5.16520357131958	-89.3558120727539	-861.6044311523438	-0.0	-0.0	-0.0	-0.0	-0.0	-0.0	230819.15625	-55310.828125	6869.71484375
0.001	-0.0	-0.0	-0.0	-3.053633213043213	8.490279197692871	-51.220733642578125	5.056514739990234	-89.97967529296875	-856.7384643554688	-0.0	-0.0	-0.0	-0.0	-0.0	-0.0	229760.09375	-55027.31640625	6810.23095703125
0.0015	-0.0	-0.0	-0.0	-2.454423189163208	8.401106834411621	-53.07651138305664	5.122436046600342	-90.1513214111328	-852.0996704101562	-0.0	-0.0	-0.0	-0.0	-0.0	-0.0	228612.078125	-54619.3046875	6824.6982421875
0.002	-0.0	-0.0	-0.0	-2.786367893218994	8.823909759521484	-58.99646759033203	4.633542060852051	-90.15595245361328	-849.48583984375	-0.0	-0.0	-0.0	-0.0	-0.0	-0.0	227473.03125	-54250.39453125	6707.96240234375
0.0025	-0.0	-0.0	-0.0	-3.1013431549072266	9.47053050994873	-65.61497497558594	4.480837821960449	-90.50717163085938	-843.7211303710938	-0.0	-0.0	-0.0	-0.0	-0.0	-0.0	225954.515625	-53838.60546875	6780.2060546875
0.003	-0.0	-0.0	-0.0	-3.500360012054444	9.676021575927734	-72.39580535888672	4.367716312408447	-90.4881362915039	-838.4019775390625	-0.0	-0.0	-0.0	-0.0	-0.0	-0.0	224857.109375	-53499.70703125	6691.75537109375
0.0035	-0.0	-0.0	-0.0	-3.748057126998901	10.76340675354004	-76.99322509765625	4.3257012367248535	-90.06568908691406	-833.0702514648438	-0.0	-0.0	-0.0	-0.0	-0.0	-0.0	223445.03125	-53095.36328125	6572.68115234375
0.004	-0.0	-0.0	-0.0	-4.8173675537109375	11.810263633728027	-82.28707885742188	4.058228969573975	-90.41903686523438	-828.271484375	-0.0	-0.0	-0.0	-0.0	-0.0	-0.0	221744.875	-52689.671875	6572.84912109375
0.0045000000000000005	-0.0	-0.0	-0.0	-5.555164337158203	12.478256225585938	-89.08406066894531	3.8584232330322266	-90.15510559082033	-819.6314697265625	-0.0	-0.0	-0.0	-0.0	-0.0	-0.0	220321.203125	-51948.16796875	6372.94287109375
0.005	-0.0	-0.0	-0.0	-6.735151767730713	13.302350044250488	-93.24524688720705	3.615469217300415	-89.53660583496094	-815.26904296875	-0.0	-0.0	-0.0	-0.0	-0.0	-0.0	218270.34375	-51351.1875	6320.46142578125
0.0055	-0.0	-0.0	-0.0	-7.226367473602295	14.30527114868164	-100.12713623046876	3.392807483673096	-89.55819702148438	-807.7612915039062	-0.0	-0.0	-0.0	-0.0	-0.0	-0.0	216336.03125	-50914.4609375	6031.298828125
0.006	-0.0	-0.0	-0.0	-8.274275779724121	14.929344177246094	-106.9251937866211	2.8831942081451416	-88.78579711914062	-800.4304809570312	-0.0	-0.0	-0.0	-0.0	-0.0	-0.0	214637.484375	-50305.14453125	6105.154296875
0.006500000000000001	-0.0	-0.0	-0.0	-8.631178855895996	15.598068237304688	-115.2247085571289	2.6613783836364746	-89.09457397460938	-794.6690673828125	-0.0	-0.0	-0.0	-0.0	-0.0	-0.0	212802.125	-49868.19140625	5941.73486328125
0.007	-0.0	-0.0	-0.0	-9.47892951965332	16.22173309326172	-121.58177947998048	2.8391900062561035	-88.6527328491211	-788.734375	-0.0	-0.0	-0.0	-0.0	-0.0	-0.0	210891.828125	-49307.24609375	5726.927734375
0.0075	-0.0	-0.0	-0.0	-9.946602821350098	16.69021987915039	-126.26036834716795	2.040348052978516	-88.54276275634766	-780.1782836914062	-0.0	-0.0	-0.0	-0.0	-0.0	-0.0	208899.78125	-48655.21875	5644.79248046875
0.008	-0.0	-0.0	-0.0	-10.571898460388184	17.090980529785156	-132.5262908935547	2.040348052978516	-87.59323120117188	-773.7230224609375	-0.0	-0.0	-0.0	-0.0	-0.0	-0.0	207027.125	-48352.4921875	5467.05029296875
0.0085	-0.0	-0.0	-0.0	-11.41664695739746	17.089893341064453	-140.64822387695312	1.9077571630477903	-87.30645751953125	-766.2113647460938	-0.0	-0.0	-0.0	-0.0	-0.0	-0.0	205355.609375	-47692.60546875	5281.70751953125
0.009000000000000001	-0.0	-0.0	-0.0	-11.326794624328612	17.35851287841797	-149.3024444580078	1.1738309860229492	-87.08770751953125	-757.572998046875	-0.0	-0.0	-0.0	-0.0	-0.0	-0.0	203092.9375	-46832.671875	5095.54931640625
